<svg xmlns="http://www.w3.org/2000/svg" style="display: none">
<symbol id="icon-cycle" viewBox="0 0 100 100">
	<path d="M50 10 V 90z M10 50 H90z
	M25 37L10 50zM10 50L25 63z
	M37 25L50 10zM50 10L63 25z
	M75 37L90 50zM90 50L75 63z
	M37 75L50 90zM50 90L63 75z" stroke-width="7" stroke-linejoin="round"/>
</symbol>

<symbol id="icon-zoom" viewBox="0 0 100 100">
	<path d="M10 40a27 27 0 1 0 54 0a27 27 0 1 0-54 0z" stroke-width="9"/>
	<line x1="60" y1="65" x2="80" y2="85" stroke-width="20" stroke-linecap="round"/>
</symbol>

<symbol id="icon-flip" viewBox="0 0 100 100">
	<path d="M10 35l15 -15z
		M10 35l15 15z
		M10 35h50z
		M90 50h-50z
		M90 50l-15 -15z
		M90 50l-15 15z"
	stroke-width="8" stroke-linejoin="round" transform="rotate(-25,50,50)"/>
</symbol>

<symbol id="icon-rotate" viewBox="0 0 100 100">
	<path d="M40 10h-22zv22zm0 4a37 37 0 1 0 20 0M60 10h22zv22z" stroke-width="10"  stroke-linejoin="round"/>
</symbol>

<symbol id="icon-filters" viewBox="0 0 100 100">
	<path d="M10 20h20zm40 0H90z
		M10 50h45zm65 0H90z
		M10 80h10zm30 0H90z" stroke-width="10"/>

	<path d="M30 10h20v20h-20z
		M55 40h20v20h-20z
		M20 70h20v20h-20z"
		stroke-width="5" stroke-linejoin="round"/>
</symbol>

<symbol id="icon-reset" viewBox="0 0 100 100">
	<path d="M15 15L85 85zM85 15L15 85z" stroke-width="13" stroke-linejoin="round"/>
</symbol>

<symbol id="icon-send-hosts" viewBox="0 0 100 100">
	<path d="M10 40l80-20l-32 55z" stroke-width="7" stroke-linejoin="round"/>
	<path d="M32 55l0 18l18 -25z" stroke-width="7" fill="currentColor"/>
</symbol>

<symbol id="icon-frames" viewBox="0 0 100 100">
	<path d="M5 30h20v30h-20zm35 0h20v30h-20zm35 0h20v30h-20z" stroke-width="7" fill="currentColor"/>
</symbol>

<symbol id="icon-direct-view" viewBox="0 0 100 100">
	<path d="M20 5L5 20L70 80L20 95L95 95L95 30L80 70z" stroke-width="7" stroke-linejoin="round" fill="currentColor"/>
</symbol>

<symbol id="icon-options" viewBox="0 0 100 100">
	<path d="M94.14 41.22A45 45 0 0 1 94.14 58.78A8 8 1 0 0 87.42 75A45 45 0 0 1 75 87.42A8 8 1 0 0 58.78 94.14A45 45 0 0 1 41.22 94.14A8 8 1 0 0 25 87.42A45 45 0 0 1 12.58 75A8 8 1 0 0 5.86 58.78A45 45 0 0 1 5.86 41.22A8 8 1 0 0 12.58 25A45 45 0 0 1 25 12.58A8 8 1 0 0 41.22 5.86A45 45 0 0 1 58.78 5.86A8 8 1 0 0 75 12.58A45 45 0 0 1 87.42 25A8 8 1 0 0 94.14 41.22M50 50m -15, 0a 15,15 0 1,0 30,0a 15,15 0 1,0 -30,0" fill="currentColor"/>
</symbol>
</svg>
